<mxfile host="app.diagrams.net" agent="Mozilla/5.0 (Windows NT 10.0; Win64; x64) AppleWebKit/537.36 (KHTML, like Gecko) Chrome/135.0.0.0 Safari/537.36" version="26.2.14">
  <diagram name="Страница — 1" id="efHE5yki45MCKFq1kKHO">
    <mxGraphModel dx="1120" dy="1223" grid="1" gridSize="10" guides="1" tooltips="1" connect="1" arrows="1" fold="1" page="0" pageScale="1" pageWidth="827" pageHeight="1169" math="0" shadow="0">
      <root>
        <mxCell id="0" />
        <mxCell id="1" parent="0" />
        <mxCell id="_xMuG3Z-ZcQbF-bkOPCh-5" value="" style="edgeStyle=orthogonalEdgeStyle;rounded=0;orthogonalLoop=1;jettySize=auto;html=1;" edge="1" parent="1" source="_xMuG3Z-ZcQbF-bkOPCh-2" target="_xMuG3Z-ZcQbF-bkOPCh-4">
          <mxGeometry relative="1" as="geometry" />
        </mxCell>
        <mxCell id="_xMuG3Z-ZcQbF-bkOPCh-2" value="Начало" style="strokeWidth=2;html=1;shape=mxgraph.flowchart.terminator;whiteSpace=wrap;" vertex="1" parent="1">
          <mxGeometry x="360" y="520" width="120" height="50" as="geometry" />
        </mxCell>
        <mxCell id="_xMuG3Z-ZcQbF-bkOPCh-11" style="edgeStyle=orthogonalEdgeStyle;rounded=0;orthogonalLoop=1;jettySize=auto;html=1;" edge="1" parent="1" source="_xMuG3Z-ZcQbF-bkOPCh-4" target="_xMuG3Z-ZcQbF-bkOPCh-10">
          <mxGeometry relative="1" as="geometry" />
        </mxCell>
        <mxCell id="_xMuG3Z-ZcQbF-bkOPCh-23" value="Пользователь" style="edgeLabel;html=1;align=center;verticalAlign=middle;resizable=0;points=[];" vertex="1" connectable="0" parent="_xMuG3Z-ZcQbF-bkOPCh-11">
          <mxGeometry x="-0.7641" relative="1" as="geometry">
            <mxPoint x="-7" y="-13" as="offset" />
          </mxGeometry>
        </mxCell>
        <mxCell id="_xMuG3Z-ZcQbF-bkOPCh-20" style="edgeStyle=orthogonalEdgeStyle;rounded=0;orthogonalLoop=1;jettySize=auto;html=1;" edge="1" parent="1" source="_xMuG3Z-ZcQbF-bkOPCh-4" target="_xMuG3Z-ZcQbF-bkOPCh-19">
          <mxGeometry relative="1" as="geometry" />
        </mxCell>
        <mxCell id="_xMuG3Z-ZcQbF-bkOPCh-24" value="Владелец" style="edgeLabel;html=1;align=center;verticalAlign=middle;resizable=0;points=[];" vertex="1" connectable="0" parent="_xMuG3Z-ZcQbF-bkOPCh-20">
          <mxGeometry x="-0.8504" y="-1" relative="1" as="geometry">
            <mxPoint x="6" y="-14" as="offset" />
          </mxGeometry>
        </mxCell>
        <mxCell id="_xMuG3Z-ZcQbF-bkOPCh-4" value="Проверка роли пользователя" style="strokeWidth=2;html=1;shape=mxgraph.flowchart.decision;whiteSpace=wrap;" vertex="1" parent="1">
          <mxGeometry x="365" y="610" width="110" height="110" as="geometry" />
        </mxCell>
        <mxCell id="_xMuG3Z-ZcQbF-bkOPCh-8" style="edgeStyle=orthogonalEdgeStyle;rounded=0;orthogonalLoop=1;jettySize=auto;html=1;endArrow=oval;endFill=1;" edge="1" parent="1">
          <mxGeometry relative="1" as="geometry">
            <mxPoint x="420" y="585" as="targetPoint" />
            <mxPoint x="500" y="585" as="sourcePoint" />
          </mxGeometry>
        </mxCell>
        <mxCell id="_xMuG3Z-ZcQbF-bkOPCh-9" value="1" style="strokeWidth=2;html=1;shape=mxgraph.flowchart.start_2;whiteSpace=wrap;" vertex="1" parent="1">
          <mxGeometry x="500" y="555" width="60" height="60" as="geometry" />
        </mxCell>
        <mxCell id="_xMuG3Z-ZcQbF-bkOPCh-15" value="" style="edgeStyle=orthogonalEdgeStyle;rounded=0;orthogonalLoop=1;jettySize=auto;html=1;" edge="1" parent="1" source="_xMuG3Z-ZcQbF-bkOPCh-10" target="_xMuG3Z-ZcQbF-bkOPCh-13">
          <mxGeometry relative="1" as="geometry" />
        </mxCell>
        <mxCell id="_xMuG3Z-ZcQbF-bkOPCh-18" value="Нет" style="edgeLabel;html=1;align=center;verticalAlign=middle;resizable=0;points=[];" vertex="1" connectable="0" parent="_xMuG3Z-ZcQbF-bkOPCh-15">
          <mxGeometry x="-0.6171" y="-1" relative="1" as="geometry">
            <mxPoint x="-16" y="-6" as="offset" />
          </mxGeometry>
        </mxCell>
        <mxCell id="_xMuG3Z-ZcQbF-bkOPCh-39" value="" style="edgeStyle=orthogonalEdgeStyle;rounded=0;orthogonalLoop=1;jettySize=auto;html=1;" edge="1" parent="1" source="_xMuG3Z-ZcQbF-bkOPCh-10" target="_xMuG3Z-ZcQbF-bkOPCh-38">
          <mxGeometry relative="1" as="geometry" />
        </mxCell>
        <mxCell id="_xMuG3Z-ZcQbF-bkOPCh-41" value="Да" style="edgeLabel;html=1;align=center;verticalAlign=middle;resizable=0;points=[];" vertex="1" connectable="0" parent="_xMuG3Z-ZcQbF-bkOPCh-39">
          <mxGeometry x="-0.24" y="-1" relative="1" as="geometry">
            <mxPoint x="8" y="-11" as="offset" />
          </mxGeometry>
        </mxCell>
        <mxCell id="_xMuG3Z-ZcQbF-bkOPCh-10" value="Поменять роль?" style="strokeWidth=2;html=1;shape=mxgraph.flowchart.decision;whiteSpace=wrap;" vertex="1" parent="1">
          <mxGeometry x="210" y="760" width="110" height="110" as="geometry" />
        </mxCell>
        <mxCell id="_xMuG3Z-ZcQbF-bkOPCh-12" value="1" style="strokeWidth=2;html=1;shape=mxgraph.flowchart.start_2;whiteSpace=wrap;" vertex="1" parent="1">
          <mxGeometry x="70" y="920" width="60" height="60" as="geometry" />
        </mxCell>
        <mxCell id="_xMuG3Z-ZcQbF-bkOPCh-13" value="2" style="strokeWidth=2;html=1;shape=mxgraph.flowchart.start_2;whiteSpace=wrap;" vertex="1" parent="1">
          <mxGeometry x="235" y="920" width="60" height="60" as="geometry" />
        </mxCell>
        <mxCell id="_xMuG3Z-ZcQbF-bkOPCh-22" value="" style="edgeStyle=orthogonalEdgeStyle;rounded=0;orthogonalLoop=1;jettySize=auto;html=1;" edge="1" parent="1" source="_xMuG3Z-ZcQbF-bkOPCh-19" target="_xMuG3Z-ZcQbF-bkOPCh-21">
          <mxGeometry relative="1" as="geometry" />
        </mxCell>
        <mxCell id="_xMuG3Z-ZcQbF-bkOPCh-19" value="Ввод данных" style="shape=parallelogram;html=1;strokeWidth=2;perimeter=parallelogramPerimeter;whiteSpace=wrap;rounded=1;arcSize=12;size=0.23;" vertex="1" parent="1">
          <mxGeometry x="500" y="785" width="120" height="60" as="geometry" />
        </mxCell>
        <mxCell id="_xMuG3Z-ZcQbF-bkOPCh-26" value="" style="edgeStyle=orthogonalEdgeStyle;rounded=0;orthogonalLoop=1;jettySize=auto;html=1;" edge="1" parent="1" source="_xMuG3Z-ZcQbF-bkOPCh-21" target="_xMuG3Z-ZcQbF-bkOPCh-25">
          <mxGeometry relative="1" as="geometry" />
        </mxCell>
        <mxCell id="_xMuG3Z-ZcQbF-bkOPCh-21" value="Создание жилья" style="rounded=1;whiteSpace=wrap;html=1;absoluteArcSize=1;arcSize=14;strokeWidth=2;" vertex="1" parent="1">
          <mxGeometry x="500" y="920" width="120" height="60" as="geometry" />
        </mxCell>
        <mxCell id="_xMuG3Z-ZcQbF-bkOPCh-28" value="" style="edgeStyle=orthogonalEdgeStyle;rounded=0;orthogonalLoop=1;jettySize=auto;html=1;" edge="1" parent="1" source="_xMuG3Z-ZcQbF-bkOPCh-25" target="_xMuG3Z-ZcQbF-bkOPCh-27">
          <mxGeometry relative="1" as="geometry" />
        </mxCell>
        <mxCell id="_xMuG3Z-ZcQbF-bkOPCh-31" value="Отменил" style="edgeLabel;html=1;align=center;verticalAlign=middle;resizable=0;points=[];" vertex="1" connectable="0" parent="_xMuG3Z-ZcQbF-bkOPCh-28">
          <mxGeometry x="-0.4851" y="1" relative="1" as="geometry">
            <mxPoint y="-12" as="offset" />
          </mxGeometry>
        </mxCell>
        <mxCell id="_xMuG3Z-ZcQbF-bkOPCh-30" value="" style="edgeStyle=orthogonalEdgeStyle;rounded=0;orthogonalLoop=1;jettySize=auto;html=1;" edge="1" parent="1" source="_xMuG3Z-ZcQbF-bkOPCh-25">
          <mxGeometry relative="1" as="geometry">
            <mxPoint x="560" y="1210" as="targetPoint" />
          </mxGeometry>
        </mxCell>
        <mxCell id="_xMuG3Z-ZcQbF-bkOPCh-32" value="Одобрил" style="edgeLabel;html=1;align=center;verticalAlign=middle;resizable=0;points=[];" vertex="1" connectable="0" parent="_xMuG3Z-ZcQbF-bkOPCh-30">
          <mxGeometry x="-0.2812" y="1" relative="1" as="geometry">
            <mxPoint x="-31" y="-8" as="offset" />
          </mxGeometry>
        </mxCell>
        <mxCell id="_xMuG3Z-ZcQbF-bkOPCh-25" value="Администратор рассматривает заявку" style="strokeWidth=2;html=1;shape=mxgraph.flowchart.decision;whiteSpace=wrap;" vertex="1" parent="1">
          <mxGeometry x="481.25" y="1030" width="157.5" height="130" as="geometry" />
        </mxCell>
        <mxCell id="_xMuG3Z-ZcQbF-bkOPCh-27" value="2" style="strokeWidth=2;html=1;shape=mxgraph.flowchart.start_2;whiteSpace=wrap;" vertex="1" parent="1">
          <mxGeometry x="340" y="1065" width="60" height="60" as="geometry" />
        </mxCell>
        <mxCell id="_xMuG3Z-ZcQbF-bkOPCh-35" value="" style="edgeStyle=orthogonalEdgeStyle;rounded=0;orthogonalLoop=1;jettySize=auto;html=1;" edge="1" parent="1" source="_xMuG3Z-ZcQbF-bkOPCh-33" target="_xMuG3Z-ZcQbF-bkOPCh-34">
          <mxGeometry relative="1" as="geometry" />
        </mxCell>
        <mxCell id="_xMuG3Z-ZcQbF-bkOPCh-33" value="Жилье одобрено" style="rounded=1;whiteSpace=wrap;html=1;absoluteArcSize=1;arcSize=14;strokeWidth=2;" vertex="1" parent="1">
          <mxGeometry x="500" y="1210" width="120" height="60" as="geometry" />
        </mxCell>
        <mxCell id="_xMuG3Z-ZcQbF-bkOPCh-34" value="Конец" style="strokeWidth=2;html=1;shape=mxgraph.flowchart.terminator;whiteSpace=wrap;" vertex="1" parent="1">
          <mxGeometry x="500" y="1310" width="120" height="50" as="geometry" />
        </mxCell>
        <mxCell id="_xMuG3Z-ZcQbF-bkOPCh-37" style="edgeStyle=orthogonalEdgeStyle;rounded=0;orthogonalLoop=1;jettySize=auto;html=1;endArrow=oval;endFill=1;" edge="1" parent="1" source="_xMuG3Z-ZcQbF-bkOPCh-36">
          <mxGeometry relative="1" as="geometry">
            <mxPoint x="560" y="1290" as="targetPoint" />
          </mxGeometry>
        </mxCell>
        <mxCell id="_xMuG3Z-ZcQbF-bkOPCh-36" value="2" style="strokeWidth=2;html=1;shape=mxgraph.flowchart.start_2;whiteSpace=wrap;" vertex="1" parent="1">
          <mxGeometry x="340" y="1260" width="60" height="60" as="geometry" />
        </mxCell>
        <mxCell id="_xMuG3Z-ZcQbF-bkOPCh-40" value="" style="edgeStyle=orthogonalEdgeStyle;rounded=0;orthogonalLoop=1;jettySize=auto;html=1;" edge="1" parent="1" source="_xMuG3Z-ZcQbF-bkOPCh-38" target="_xMuG3Z-ZcQbF-bkOPCh-12">
          <mxGeometry relative="1" as="geometry" />
        </mxCell>
        <mxCell id="_xMuG3Z-ZcQbF-bkOPCh-38" value="Смена роли" style="rounded=1;whiteSpace=wrap;html=1;absoluteArcSize=1;arcSize=14;strokeWidth=2;" vertex="1" parent="1">
          <mxGeometry x="40" y="785" width="120" height="60" as="geometry" />
        </mxCell>
      </root>
    </mxGraphModel>
  </diagram>
</mxfile>
